<svg xmlns="http://www.w3.org/2000/svg" viewBox="0 0 64 64">
  <defs>
    <linearGradient id="bg" x1="10%" y1="10%" x2="90%" y2="90%">
      <stop offset="0%" stop-color="#ff3d9a" />
      <stop offset="100%" stop-color="#9b005a" />
    </linearGradient>
  </defs>
  <rect width="64" height="64" rx="18" fill="#07090f" />
  <rect x="8" y="8" width="48" height="48" rx="16" fill="url(#bg)" />
  <circle cx="32" cy="32" r="10" fill="#ffffff" />
  <path d="M32 11C24.9 11 18.5 14.7 14.9 20.6l5.1 3.1A19.3 19.3 0 0 1 32 18V11Z" fill="#ffffff" fill-opacity=".58" />
  <path d="M53 32c0 7.1-3.5 13.8-9.4 17.8l-3.1-5.1A19.3 19.3 0 0 0 46 32h7Z" fill="#ffffff" fill-opacity=".74" />
  <path d="M32 53c-8.6 0-16.4-5.4-19.3-13.4l5.8-1.8A19.3 19.3 0 0 0 32 46v7Z" fill="#ffffff" fill-opacity=".48" />
</svg>
